# AST/ASF file generated using VICON BodyLanguage
# -----------------------------------------------
:version 1.10
:name VICON
:units
  mass 1.0
  length 0.45
  angle deg
:documentation
   .ast/.asf automatically generated from VICON data using
   VICON BodyBuilder and BodyLanguage model FoxedUp or BRILLIANT.MOD
:root
   order TX TY TZ RX RY RZ
   axis XYZ
   position 0 0 0  
   orientation 0 0 0 
:bonedata
  begin
     id 1 
     name lhipjoint
     direction 0.537252 -0.787203 0.302774 
     length 2.29576 
     axis 0 0 0  XYZ
  end
  begin
     id 2 
     name lfemur
     direction 0.34202 -0.939693 0  
     length 7.31114  
     axis 0 0 20  XYZ
    dof rx ry rz
    limits (-160.0 20.0)
           (-70.0 70.0)
           (-60.0 70.0)
  end
  begin
     id 3 
     name ltibia
     direction 0.34202 -0.939693 0   
     length 8.36008   
     axis 0 0 20   XYZ
    dof rx
    limits (-10.0 170.0)
  end
  begin
     id 4 
     name lfoot
     direction 0.0969116 -0.266263 0.959016   
     length 2.16704   
     axis -90 7.62852e-016 20   XYZ
    dof rx rz
    limits (-45.0 90.0)
           (-70.0 20.0)
  end
  begin
     id 5 
     name ltoes
     direction 1.53563e-011 -4.21779e-011 1   
     length 1.08338   
     axis -90 7.62852e-016 20   XYZ
    dof rx
    limits (-90.0 20.0)
  end
  begin
     id 6 
     name rhipjoint
     direction -0.588228 -0.754791 0.290308   
     length 2.39434  
     axis 0 0 0  XYZ 
  end
  begin
     id 7 
     name rfemur
     direction -0.34202 -0.939693 0   
     length 7.45207   
     axis 0 0 -20   XYZ
    dof rx ry rz
    limits (-160.0 20.0)
           (-70.0 70.0)
           (-70.0 60.0)
  end
  begin
     id 8 
     name rtibia
     direction -0.34202 -0.939693 0   
     length 8.03565   
     axis 0 0 -20   XYZ
    dof rx
    limits (-10.0 170.0)
 end
 begin
     id 9 
     name rfoot
     direction -0.107009 -0.294004 0.949795   
     length 2.11509  
     axis -90 -7.62852e-016 -20   XYZ
    dof rx rz
    limits (-45.0 90.0)
           (-20.0 70.0)
  end
  begin
     id 10 
     name rtoes
     direction -1.53533e-011 -4.22004e-011 1   
     length 1.05493   
     axis -90 -7.62852e-016 -20   XYZ
    dof rx
    limits (-90.0 20.0)
  end
  begin
     id 11 
     name lowerback
     direction -0.0115208 0.997969 -0.0626515   
     length 2.03153   
     axis 0 0 0   XYZ
    dof rx ry rz
    limits (-20.0 45.0)
           (-30.0 30.0)
           (-30.0 30.0)
  end
  begin
     id 12 
     name upperback
     direction -0.00423475 0.999974 -0.00583614   
     length 2.03619   
     axis 0 0 0   XYZ
    dof rx ry rz
    limits (-20.0 45.0)
           (-30.0 30.0)
           (-30.0 30.0)
  end
  begin
     id 13 
     name thorax
     direction 0.00289429 0.999728 0.0231573   
     length 2.03921   
     axis 0 0 0   XYZ
    dof rx ry rz
    limits (-20.0 45.0)
           (-30.0 30.0)
           (-30.0 30.0)
  end
  begin
     id 14 
     name lowerneck
     direction 0.0188995 0.987777 0.154721   
     length 1.78836   
     axis 0 0 0   XYZ
    dof rx ry rz
    limits (-20.0 45.0)
           (-30.0 30.0)
           (-30.0 30.0)
  end
  begin
     id 15 
     name upperneck
     direction -0.00612612 0.992995 -0.118   
     length 1.81789   
     axis 0 0 0   XYZ
    dof rx ry rz
    limits (-20.0 45.0)
           (-30.0 30.0)
           (-30.0 30.0)
  end
  begin
     id 16
     name head
     direction -0.00420226 0.998397 -0.0564482  
     length 1.82234  
     axis 0 0 0   XYZ
    dof rx ry rz
    limits (-20.0 45.0)
           (-30.0 30.0)
           (-30.0 30.0)
  end
  begin
     id 17 
     name lclavicle
     direction 0.916488 0.396539 0.0529676  
     length 3.51732  
     axis 0 0 0   XYZ
    dof ry rz
    limits (-20.0 10.0)
           (0.0 20.0)
  end
  begin
     id 18 
     name lhumerus
     direction 1 -4.4896e-011 8.36962e-028   
     length 5.45077   
     axis 180 -30 -90   XYZ
    dof rx ry rz
    limits (-60.0 90.0)
           (-90.0 90.0)
           (-90.0 90.0)
  end
  begin
     id 19
     name lradius
     direction 1 -4.48962e-011 3.01407e-027   
     length 3.05488   
     axis 180 -30 -90   XYZ
    dof rx
    limits (-10.0 170.0)
  end
  begin
     id 20
     name lwrist
     direction 1 -4.49002e-011 4.72961e-027   
     length 1.52744   
     axis -2.72261e-015 90 90   XYZ
    dof ry
    limits (-180.0 0.0)
 end
  begin
     id 21 
     name lhand
     direction 1 -4.4899e-011 9.45681e-027   
     length 0.638818   
     axis -6.0311e-015 90 90   XYZ
    dof rx rz
    limits (-90.0 90.0)
           (-45.0 45.0)
  end
  begin
     id 22 
     name lfingers
     direction 1 -4.48871e-011 1.88632e-026   
     length 0.515032   
     axis -1.20625e-014 90 90   XYZ
    dof rx
    limits (0.0 90.0)
  end
  begin
     id 23
     name lthumb
     direction 0.707107 -6.34964e-011 0.707107   
     length 0.739485   
     axis -90 45 6.32835e-014   XYZ
    dof rx rz
    limits (-45.0 45.0)
           (-45.0 45.0)
  end
  begin
     id 24 
     name rclavicle
     direction -0.949427 0.303202 0.0815894   
     length 3.76167  
     axis 0 0 0   XYZ 
    dof ry rz
    limits (-10.0 20.0)
           (-20.0 0.0)
  end
  begin
     id 25 
     name rhumerus
     direction -1 -4.48971e-011 -6.43969e-018  
     length 4.88702   
     axis 180 30 90   XYZ
    dof rx ry rz
    limits (-90.0 60.0)
           (-90.0 90.0)
           (-90.0 90.0)
  end
  begin
     id 26 
     name rradius
     direction -1 -4.48987e-011 5.46662e-027   
     length 3.22603   
     axis 180 30 90   XYZ
    dof rx
    limits (-10.0 170.0)
  end
  begin
     id 27 
     name rwrist
     direction -1 -4.48956e-011 4.72476e-027   
     length 1.61302   
     axis -2.72261e-015 -90 -90   XYZ
    dof ry
    limits (-180.0 0.0)
  end
  begin
     id 28
     name rhand
     direction -1 -4.4889e-011 9.43571e-027   
     length 0.716293   
     axis -6.0311e-015 -90 -90   XYZ
    dof rx rz
    limits (-90.0 90.0)
           (-45.0 45.0)
  end
  begin
     id 29
     name rfingers
     direction -1 -4.48887e-011 1.88701e-026   
     length 0.577494   
     axis -1.20625e-014 -90 -90   XYZ
    dof rx
    limits (0.0 90.0)
  end
  begin
     id 30
     name rthumb
     direction -0.707107 -6.34825e-011 0.707107   
     length 0.829169   
     axis -90 -45 -6.32835e-014   XYZ
    dof rx rz
    limits (-45.0 45.0)
           (-45.0 45.0)
  end
:hierarchy
  begin
    root lhipjoint rhipjoint lowerback
    lhipjoint lfemur
    lfemur ltibia
    ltibia lfoot
    lfoot ltoes
    rhipjoint rfemur
    rfemur rtibia
    rtibia rfoot
    rfoot rtoes
    lowerback upperback
    upperback thorax
    thorax lowerneck lclavicle rclavicle
    lowerneck upperneck
    upperneck head
    lclavicle lhumerus
    lhumerus lradius
    lradius lwrist
    lwrist lhand lthumb
    lhand lfingers
    rclavicle rhumerus
    rhumerus rradius
    rradius rwrist
    rwrist rhand rthumb
    rhand rfingers
  end

#!OML:ASF F:\VICON\USERDATA\INSTALL\rory3\rory3.ASF
:FULLY-SPECIFIED
:DEGREES
429
root 2.06436 18.3755 0.234881 171.147 87.0375 163.511
lowerback -10.0917 -1.07524 0.119055
upperback -4.23161 -1.2786 -0.363983
thorax 1.24973 -0.577489 -0.581223
lowerneck -19.0681 0.826402 4.27413
upperneck 18.9112 0.845066 -3.8682
head 9.12134 0.302336 -1.91952
rclavicle -3.98205e-015 -1.74907e-015
rhumerus -35.8676 1.39144 -75.6146
rradius 82.021
rwrist -231.938
rhand -30.2628 2.72602
rfingers 7.12502
rthumb -3.57129 -27.2238
lclavicle -3.98205e-015 -1.74907e-015
lhumerus -39.7612 -9.42909 76.1169
lradius 79.509
lwrist 253.843
lhand -29.0164 -44.7366
lfingers 7.12502
lthumb -2.36759 -14.77
rfemur 2.13033 -4.13752 14.5964
rtibia 3.18055e-015
rfoot -9.68624 1.92182
rtoes -11.5133
lfemur -8.27391 9.67588 -17.2017
ltibia 18.6471
lfoot -17.1013 -1.47145
ltoes -22.3577
430
root 2.05854 18.3811 0.240433 171.309 87.0274 163.601
lowerback -10.0968 -1.08714 0.0565663
upperback -4.23493 -1.28924 -0.326572
thorax 1.25135 -0.581839 -0.508712
lowerneck -19.2431 0.810932 4.09553
upperneck 18.7089 0.827183 -3.73191
head 9.08083 0.291431 -1.8439
rclavicle 7.36901e-015 3.24267e-015
rhumerus -36.3248 1.25834 -75.6754
rradius 82.2213
rwrist -231.6
rhand -30.338 2.57892
rfingers 7.12502
rthumb -3.64389 -27.3697
lclavicle 7.36901e-015 3.24267e-015
lhumerus -39.9599 -9.1333 76.262
lradius 79.5205
lwrist 253.414
lhand -29.0192 -44.814
lfingers 7.12502
lthumb -2.37023 -14.8474
rfemur 2.03907 -4.15427 14.6225
rtibia -1.59028e-015
rfoot -9.64757 1.94169
rtoes -11.5268
lfemur -8.37511 9.67225 -17.1955
ltibia 18.6203
lfoot -17.0757 -1.45848
ltoes -22.36
431
root 2.05489 18.3839 0.244297 170.475 87.1353 162.695
lowerback -10.1506 -1.06877 -0.00760323
upperback -4.19752 -1.26079 -0.29409
thorax 1.32202 -0.567203 -0.437418
lowerneck -19.5767 0.796447 3.82105
upperneck 18.6482 0.808397 -3.46496
head 9.11682 0.287603 -1.70958
rclavicle 6.94815e-015 -4.33599e-015
rhumerus -36.5783 1.16962 -75.7644
rradius 82.3152
rwrist -231.28
rhand -30.3356 2.49397
rfingers 7.12502
rthumb -3.64154 -27.4547
lclavicle 6.94815e-015 -4.33599e-015
lhumerus -40.0924 -8.81934 76.3619
lradius 79.5108
lwrist 253.044
lhand -29.0045 -44.7126
lfingers 7.12502
lthumb -2.35604 -14.7458
rfemur 1.93707 -4.04692 14.6129
rtibia -1.43125e-014
rfoot -9.6247 1.951
rtoes -11.384
lfemur -8.44725 9.76021 -17.2251
ltibia 18.595
lfoot -17.0619 -1.41974
ltoes -22.4418
432
root 2.05247 18.3869 0.246284 169.569 87.2036 161.758
lowerback -10.1829 -1.06072 -0.0328175
upperback -4.15193 -1.24933 -0.298355
thorax 1.38745 -0.561935 -0.427478
lowerneck -19.7676 0.785779 3.70221
upperneck 18.4623 0.781392 -3.32728
head 9.08463 0.277503 -1.64509
rclavicle -1.69278e-014 -3.52843e-015
rhumerus -36.8915 0.913701 -75.8825
rradius 82.2819
rwrist -230.862
rhand -30.4142 2.45142
rfingers 7.12502
rthumb -3.71749 -27.4959
lclavicle -1.69278e-014 -3.52843e-015
lhumerus -40.2704 -8.54133 76.4241
lradius 79.5271
lwrist 252.76
lhand -28.9943 -44.4774
lfingers 7.12502
lthumb -2.34618 -14.5106
rfemur 1.87718 -3.97455 14.5867
rtibia -1.27222e-014
rfoot -9.65112 1.94429
rtoes -11.2592
lfemur -8.47047 9.81781 -17.262
ltibia 18.5735
lfoot -17.0322 -1.38177
ltoes -22.5436
433
root 2.04878 18.3872 0.246848 168.916 87.1653 161.083
lowerback -10.1748 -1.09714 -0.0300532
upperback -4.11881 -1.29878 -0.325723
thorax 1.41632 -0.587407 -0.463026
lowerneck -19.7782 0.785407 3.68404
upperneck 18.0723 0.763394 -3.29228
head 8.95105 0.267614 -1.62911
rclavicle 1.69627e-014 5.44173e-015
rhumerus -37.2857 0.623201 -76.0378
rradius 82.2437
rwrist -230.416
rhand -30.6208 2.50316
rfingers 7.12502
rthumb -3.91697 -27.4406
lclavicle 1.69627e-014 5.44173e-015
lhumerus -40.4402 -8.27826 76.4231
lradius 79.5133
lwrist 252.586
lhand -29.1152 -44.5729
lfingers 7.12502
lthumb -2.46297 -14.6074
rfemur 1.84379 -4.00841 14.5354
rtibia 1.59028e-015
rfoot -9.64436 1.97666
rtoes -10.9095
lfemur -8.49372 9.78945 -17.3124
ltibia 18.5609
lfoot -17.0204 -1.39458
ltoes -22.4848
434
root 2.04443 18.3862 0.247274 170.239 87.143 162.342
lowerback -10.2114 -1.12779 0.0711528
upperback -4.08677 -1.35012 -0.320475
thorax 1.46678 -0.614178 -0.521283
lowerneck -19.8189 0.797627 3.62836
upperneck 17.7313 0.768571 -3.22786
head 8.84085 0.269583 -1.59442
rclavicle -1.72943e-014 -5.03174e-015
rhumerus -37.6348 0.473553 -76.1945
rradius 82.3382
rwrist -230.089
rhand -30.6642 2.71599
rfingers 7.12502
rthumb -3.95887 -27.227
lclavicle -1.72943e-014 -5.03174e-015
lhumerus -40.5897 -8.0286 76.4453
lradius 79.5145
lwrist 252.505
lhand -29.0828 -44.6957
lfingers 7.12502
lthumb -2.43163 -14.7298
rfemur 1.76205 -4.04712 14.6062
rtibia -9.54166e-015
rfoot -9.63427 2.0047
rtoes -11.0929
lfemur -8.59661 9.82189 -17.2604
ltibia 18.5823
lfoot -16.9961 -1.47117
ltoes -22.5373
